<?xml version="1.0" encoding="UTF-8"?><svg id="Layer_2" xmlns="http://www.w3.org/2000/svg" viewBox="0 0 153.42 75.53"><defs><style>.cls-1,.cls-2{fill:#fff;}.cls-3{fill:#fde155;}.cls-2{font-family:LobsterTwo-Bold, 'Lobster Two';font-size:33.97px;}</style></defs><g id="Explore"><g><g><path class="cls-3" d="M8.06,37.44c-.05-.14-.07-.29-.07-.45,.7-11.45,8.14-19.71,17.82-21.72,12.67-2.62,24.7,7.03,25.98,18.75,.36,3.32-.69,5.92-2.08,8.6-.23,.43-1.16,.96-1.47,.81-1.53-.72-2.36,.31-3.52,.94-2.41,1.32-5.04,2.24-7.5,3.47-2.1,1.05-4.06,2.35-6.14,3.44-.55,.29-1.63,.53-1.9,.25-2.21-2.29-5.13-3.12-7.92-4.28-2.36-.98-4.58-2.27-6.89-3.36-.61-.29-1.38-.62-1.98-.5-1.4,.3-2.17-.3-2.64-1.44-.7-1.73-1.32-3.5-1.7-4.52ZM29.59,17.65c-.09,0-.17,0-.25,.01-1.15,.2-2.74,.37-4.26,.8-4.2,1.19-7.59,3.6-10.04,7.23-.07,.1-.1,.22-.11,.36-.07,.67,.54,1.23,1.21,1.13,.17-.03,.33-.07,.47-.15,.48-.28,.77-.88,1.17-1.32,3.9-4.26,8.65-6.27,14.48-5.53,4.61,.58,8.02,3.06,10.93,6.49,.09,.1,.2,.18,.34,.23,.82,.35,1.74-.5,1.39-1.33-.03-.07-.06-.13-.1-.18-3.61-5.05-8.69-7.33-15.22-7.73Z"/><path class="cls-1" d="M6.41,51.52c2.97,6.46,10.08,8.52,14.05,13.99-.18,3.8-3.68-.87-4.89-1.66-4.65-3-8.97-6.33-11.42-11.47-1.53-3.92-7.12-16.13-1.87-18.34,4.62-.18,4.89,7.63,7.12,10.73,.75,2.34,2.69,.14,4.3,.93,5.34,3.07,12.8,3.89,15.9,9.72,3.83-4.95,9.88-6.14,15.3-8.94,3.13-2.57,3.64,.63,5.39-1.45,2.36-2.77,3.17-11.85,7.42-10.96,1.48,.37,2.04,1.53,1.96,3.03-.61,11.03-4.6,20.2-14.4,26.17-1.77,.95-3.21,2.06-4.08,3.98-6.09,.2,5.04-8.1,6.68-8.91,6.61-5.18,8.64-13.35,9.55-21.26-.21-.05-.43-.11-.64-.16-3.51,8.39-7.56,16.53-16.09,20.68-6.03-.85,7.23-6.39,7.11-8.85l-.48-.46c-6.83,3.13-16.19,4.45-16.35,13.69-2.16,2.02-2.68-1.88-2.84-3.38-.77-3.92-3.73-5.83-7.62-6.97-2.9-.57-5.28-2.93-8.19-3.15-.17,3.45,9.51,5.53,8.14,8.96-9.03-1.57-14.75-12.48-17.06-20.76l-.76,.1c.06,5.08,1.6,10.2,3.76,14.75Z"/><path class="cls-1" d="M25,12.16c.11,.39,.01,1.54-.91,1.85-.42,.14-1.3-.46-1.42-.88-1.02-3.46-1.95-6.95-2.79-10.46-.02-.1-.01-.22,.03-.34,.28-.85,1.37-1.21,2.08-.66,.09,.07,.15,.14,.18,.23,1,3.32,1.87,6.68,2.84,10.26Z"/><path class="cls-1" d="M31.15,6.19c0,1.78,.1,3.56-.05,5.32,0,.1-.03,.19-.07,.29-.36,.92-1.68,1-2.18,.13-.09-.16-.15-.31-.15-.47-.12-3.48-.11-6.97,0-10.45,0-.07,.01-.13,.03-.2,.28-1.07,1.83-1.07,2.27-.06,.05,.11,.08,.21,.09,.32,.18,1.69,.06,3.41,.06,5.12Z"/><path class="cls-1" d="M40.08,1.34c.48,.51,.62,1.27,.44,1.95-.9,3.45-1.73,6.71-2.67,9.93-.12,.4-1.09,.9-1.5,.78-.41-.12-.95-1.03-.85-1.46,.83-3.52,1.76-7.01,2.77-10.48,.13-.45,.96-.99,1.41-.95,.14,.01,.27,.11,.4,.24Z"/><path class="cls-1" d="M11.97,6.69c.43-.21,.95-.14,1.32,.17,.22,.18,.45,.39,.61,.64,1.43,2.29,2.88,4.57,4.15,6.95,.04,.08,.07,.17,.1,.27,.25,1.12-1.17,1.99-2.01,1.2-.05-.05-.1-.11-.14-.16-1.54-2.29-2.94-4.68-4.32-7.07-.46-.8-.57-1.55,.3-1.98Z"/><path class="cls-1" d="M48.86,7c.29,.37,.35,.87,.16,1.3-.13,.28-.24,.53-.37,.75-1.31,2.2-2.55,4.44-4,6.54-.05,.08-.12,.15-.19,.22-.87,.79-2.35-.08-2.03-1.21,.02-.08,.05-.15,.09-.22,1.25-2.38,2.66-4.68,4.13-6.93,.31-.47,1.13-.74,1.75-.82,.14-.02,.3,.15,.47,.36Z"/><path class="cls-1" d="M55.21,13.36c.27,.41,.26,.95,0,1.37-.19,.3-.37,.58-.6,.82-1.57,1.59-3.12,3.21-4.82,4.66-.07,.06-.15,.11-.23,.14-1.05,.49-2.23-.7-1.67-1.71,.03-.06,.07-.12,.12-.17,1.64-1.8,3.41-3.47,5.21-5.11,.36-.33,1.05-.47,1.56-.41,.15,.02,.29,.18,.43,.4Z"/><path class="cls-1" d="M13.24,19.95c-.19,.24-.39,.73-.74,.86-.35,.14-.99,.08-1.25-.17-2.02-1.89-4.01-3.8-5.91-5.8-.28-.29-.23-1.16,0-1.57,.15-.27,1.14-.45,1.36-.25,2.17,2,4.26,4.08,6.36,6.15,.12,.12,.09,.37,.18,.77Z"/><path class="cls-1" d="M8.68,24.56c.55,.57,.21,1.54-.54,1.79-.37,.13-.7,.2-.94,.08-1.99-.97-3.91-2.11-5.77-3.31-.35-.23-.6-1.24-.47-1.45,.51-.79,1.24-.78,1.62-.59,2.04,1.02,4.01,2.2,5.98,3.38,.04,.02,.08,.06,.11,.09Z"/><path class="cls-1" d="M53.74,26.33c-.61,.38-1.4,.38-1.97-.06-.14-.11-.23-.21-.24-.31-.04-.51,.11-1.29,.46-1.52,1.87-1.19,3.81-2.29,5.79-3.29,.39-.2,.94-.68,1.55,.28,.14,.22,.3,1.08,.13,1.2-1.88,1.27-3.79,2.48-5.73,3.71Z"/><path class="cls-1" d="M5.54,32.29c-.29,.17-.63,.21-.95,.13-1.47-.36-2.75-.63-3.95-1.08-.06-.02-.12-.05-.17-.09-.76-.54-.54-1.75,.32-2.13,.15-.07,.3-.1,.44-.08,1.42,.2,2.82,.61,4.16,1.13,.45,.18,1,.98,.93,1.4-.05,.29-.43,.52-.77,.72Z"/><path class="cls-1" d="M55.98,32.41c-.35,.09-.72,.04-1.03-.15s-.6-.39-.61-.61c-.02-.5,.38-1.3,.79-1.47,1.34-.53,2.76-.92,4.18-1.14,.13-.02,.27,0,.41,.05,.8,.27,1.12,1.32,.57,1.97-.08,.09-.16,.16-.26,.2-1.25,.48-2.57,.77-4.06,1.16Z"/><path class="cls-3" d="M4.53,40.67c.36,.79,.72,1.57,1.07,2.36-.36-.79-.72-1.57-1.07-2.36Z"/><path class="cls-3" d="M4.8,47.48c-.17-.45-.34-.91-.51-1.36,.17,.45,.34,.91,.51,1.36Z"/><path class="cls-3" d="M6.1,44.13c.2,.33,.41,.66,.61,.99-.2-.33-.41-.66-.61-.99Z"/><path class="cls-3" d="M3.24,42.33c-.08-.3-.15-.59-.23-.89,.08,.3,.15,.59,.23,.89Z"/><path class="cls-3" d="M5.31,49.13c-.07-.22-.14-.44-.21-.65,.07,.22,.14,.44,.21,.65Z"/><path class="cls-3" d="M6.41,51.52c-.1-.17-.19-.33-.28-.5,.1,.17,.19,.33,.28,.5Z"/></g><g><text class="cls-2" transform="translate(71.57 37.47)"><tspan x="0" y="0">helpin</tspan></text><text class="cls-2" transform="translate(71.57 67.04)"><tspan x="0" y="0">hand</tspan></text></g></g></g></svg>